<svg width="148" height="156" viewBox="0 0 148 156" fill="none" xmlns="http://www.w3.org/2000/svg">
<path d="M101.341 82.4384C98.909 80.2089 96.6795 74.4663 95.8688 72.1016C91.8149 61.6113 79.2488 28.3223 79.2488 28.3223C79.2488 28.3223 69.1147 3.88302 69.1147 3.59502C69.1147 2.98698 70.9794 1.97356 72.763 1.16283C74.9925 0.149422 80.6676 -0.846583 88.1668 1.16283C95.6661 3.17225 104.128 9.67549 109.043 18.1881C113.958 26.7008 121.812 42.9154 121.812 42.9154C127.082 54.4683 138.294 79.4401 141.472 86.6948C145.529 95.9543 147.647 101.165 147.837 108.179C147.992 113.903 145.083 120.959 143.296 123.988C141.567 126.083 137.419 130.263 132.352 132.906C127.69 135.339 127.082 135.541 121.609 136.96C104.787 139.798 67.5608 144.392 51.4813 146.486C47.9006 146.689 44.3875 147.094 38.7124 147.094C33.6453 146.689 31.8212 145.878 28.5782 144.865C25.3353 143.851 18.6468 139.595 14.3905 135.744C10.7422 131.893 9.32343 129.258 7.70197 126.015C6.40481 123.421 5.81027 121.151 5.67515 120.34C5.7738 120.171 6.28316 119.732 10.1342 119.124C14.0076 118.429 62.8316 114.868 71.1415 114.057C77.7895 113.408 81.6135 114.057 82.6944 114.462C95.058 118.111 101.718 120.639 113.907 124.596C117.353 125.745 125.177 126.461 128.906 120.137C132.635 113.814 129.717 108.584 128.095 106.558C120.596 99.9367 105.395 87.1001 104.989 86.2894C104.381 85.6814 103.976 85.6814 101.341 82.4384Z" fill="#5A3CF0"/>
<path d="M2.02687 108.179C1.21614 110.287 0 116.692 0 119.124L3.24296 115.273C3.7294 114.665 4.99954 113.719 5.47247 113.449L13.3771 112.638C32.0914 111.152 70.9794 108.139 76.8166 107.976C82.6539 107.814 86.5453 109.598 88.9776 110.003C97.4902 112.908 115.042 118.962 117.15 119.124C119.258 119.286 120.393 118.313 120.191 118.111C119.988 117.908 65.9958 87.0254 31.0104 67.2373C30.2673 67.0346 28.1729 66.4265 26.3487 67.2373C23.9166 68.048 21.5519 71.5611 20.6736 73.1151L6.15113 98.634C5.3404 100.458 2.8376 106.071 2.02687 108.179Z" fill="#5A3CF0"/>
<path d="M33.848 62.3729L123.231 113.043C124.042 113.043 123.636 110.683 122.217 109.395C118.569 106.085 109.732 98.2071 103.571 93.1806C97.4091 88.1541 93.4366 82.1682 92.2205 79.8036C81.3766 52.1002 75.8032 36.6322 64.453 8.86477C61.5555 4.0355 52.2412 18.0042 51.2787 19.4042C43.7794 31.5652 34.9019 48.1446 32.6319 52.8468C30.3619 57.549 32.4968 61.1568 33.848 62.3729Z" fill="#5A3CF0"/>
<path d="M5.67505 120.34C5.81017 121.151 6.4047 123.421 7.70187 126.015C9.32333 129.258 10.7421 131.893 14.3904 135.744C18.6467 139.595 25.3352 143.851 28.5781 144.864C31.8211 145.878 33.6452 146.689 38.7123 147.094C44.3874 147.094 47.9005 146.689 51.4812 146.486C67.5607 144.392 104.787 139.797 121.609 136.96C127.082 135.541 127.653 135.167 132.315 132.735C137.339 130.082 141.368 126.26 143.166 124.146C142.828 124.822 141.675 126.501 140.864 127.636C139.852 129.299 138.263 130.979 135.685 132.848C134.858 133.472 133.946 134.087 132.951 134.67C132.561 134.899 132.159 135.122 131.743 135.338C128.095 136.96 122.217 139.054 119.785 139.392C99.4494 142.027 58.6157 147.337 51.4812 148.31C51.1368 148.351 50.8007 148.391 50.4729 148.43C50.2462 148.46 50.0415 148.488 49.8598 148.513C39.7257 149.729 38.5096 149.459 37.2935 149.323C35.4018 149.053 30.605 148.715 27.7674 147.297C24.5245 145.878 25.9433 146.283 17.6333 141.622C12.9716 138.581 9.66113 133.92 8.30992 131.69C7.09382 130.069 5.26968 125.812 5.067 125.002C4.74271 124.191 4.25627 121.961 4.05359 120.948C4.12115 120.813 4.54003 120.502 5.67505 120.34Z" fill="#7A63F5"/>
<path d="M0 119.124L3.04023 115.475L4.25633 121.759C5.06706 125.002 7.49924 133.109 14.3904 138.581C26.146 148.513 34.6587 149.323 41.7525 149.323C49.8598 148.715 115.245 139.878 118.974 139.392C127.487 137.365 128.095 136.757 130.73 135.744C133.365 134.73 136.197 132.48 138.021 130.859C139.481 129.562 141.467 126.805 142.278 125.589C142.075 125.994 141.026 127.961 138.432 132.501C134.986 137.771 132.96 138.784 129.109 141.621C125.46 143.648 118.164 145.788 114.313 146.283C93.8419 148.918 51.7651 154.269 47.225 154.593C41.5499 154.999 40.1311 155.201 34.6587 154.999C30.2807 154.836 24.0516 152.499 21.4843 151.35C20.4033 150.742 17.3496 149.08 13.7824 146.486C10.2152 143.892 7.16144 139.662 6.08047 137.973C5.06706 136.149 2.75648 131.771 1.62146 128.852C0.486437 125.934 0.0675608 121.151 0 119.124Z" fill="#4429C6"/>
</svg>
