<svg width="921" height="346" viewBox="0 0 921 346" fill="none" xmlns="http://www.w3.org/2000/svg">
<path d="M157.329 137.624C150.606 135.996 140.66 127.704 136.761 124.181C118.627 109.014 61.6262 60.582 61.6262 60.582C61.6262 60.582 18.1192 25.949 17.8246 25.4195C17.2028 24.3016 19.5727 20.5436 22.0019 17.2406C25.0383 13.1118 34.3869 5.51364 50.1415 1.58723C65.8961 -2.33918 88.0056 1.0177 105.69 11.6737C123.374 22.3298 154.305 44.1587 154.305 44.1587C175.747 60.0435 221.768 94.56 234.993 104.668C251.873 117.569 261.072 124.996 268.592 137.699C274.729 148.064 276.631 163.994 276.466 171.378C275.448 176.986 272.145 188.886 265.592 198.896C259.564 208.105 258.66 209.095 250.114 217.265C222.285 239.576 158.979 285.852 131.747 306.042C125.413 310.053 119.41 314.369 109.043 320.136C99.3718 324.539 95.2104 324.903 88.2498 326.335C81.2893 327.767 64.7178 326.739 53.004 323.984C42.401 320.612 37.1145 317.209 30.8359 312.895C25.813 309.443 22.4053 305.874 21.3293 304.521C21.3366 304.11 21.8182 302.785 28.2313 297.754C34.5962 292.539 120.145 236.378 134.497 226.443C145.978 218.495 153.627 215.801 156.016 215.448C182.333 209.591 197.085 207.472 223.4 202.361C230.869 200.971 245.893 194.337 246.239 178.922C246.584 163.506 235.905 156.858 230.87 154.779C210.399 150.227 169.502 142.075 167.932 140.996C166.199 140.496 165.459 140.908 157.329 137.624Z" fill="#5A3CF0"/>
<path d="M2.22766 285.87C2.90238 290.57 7.23092 303.581 9.71832 308.052L11.7041 297.677C11.9709 296.064 13.3239 293.035 13.9114 292.057L27.5223 282.534C60.1894 260.784 128.148 215.727 138.646 209.497C149.143 203.267 158.076 202.592 162.934 200.865C181.456 197.556 219.711 190.848 223.727 189.004C227.744 187.161 228.822 184.219 228.245 184.052C227.667 183.885 97.4515 181.975 13.3032 181.146C11.7383 181.529 7.2905 182.539 4.7873 185.884C1.17335 189.846 0.446573 198.708 0.431299 202.457L0 264.131C0.384519 268.308 1.55294 281.171 2.22766 285.87Z" fill="#5A3CF0"/>
<path d="M13.512 169.32L228.617 171.647C230.098 170.823 226.943 166.894 223.034 165.969C212.984 163.59 188.784 158.087 172.388 155.108C155.991 152.128 142.613 145.16 137.973 142.048C89.831 102.135 63.8303 79.3612 14.6981 39.845C4.46596 33.911 1.73658 69.0573 1.41006 72.6095C0.147541 102.588 0.886053 142.09 1.54815 153.042C2.21024 163.994 9.79994 168.457 13.512 169.32Z" fill="#5A3CF0"/>
<path d="M21.3293 304.521C22.4053 305.874 25.813 309.443 30.8359 312.895C37.1145 317.209 42.401 320.612 53.004 323.984C64.7178 326.739 81.2893 327.767 88.2498 326.335C95.2104 324.903 99.3718 324.539 109.043 320.136C119.41 314.369 125.413 310.053 131.747 306.042C158.979 285.852 222.285 239.576 250.114 217.265C258.66 209.095 259.321 207.827 265.35 198.618C271.814 188.635 275.266 177.514 276.389 171.801C276.463 173.386 276.074 177.646 275.753 180.557C275.604 184.642 274.419 189.345 271.622 195.4C270.749 197.389 269.713 199.447 268.491 201.53C268.013 202.345 267.506 203.165 266.968 203.985C261.962 210.674 253.367 220.497 249.269 223.59C214.814 249.099 145.651 300.357 133.612 309.395C133.025 309.822 132.452 310.236 131.893 310.64C131.51 310.927 131.164 311.186 130.858 311.416C113.588 323.95 111.091 324.689 108.731 325.676C104.999 327.102 95.8904 331.355 89.2558 331.63C81.8807 332.317 84.8871 331.621 64.939 331.495C53.3138 330.643 42.4987 325.436 37.7502 322.71C33.8704 320.965 26.1851 314.994 24.9857 313.709C23.5642 312.548 20.3954 308.943 18.9888 307.286C18.974 306.969 19.4217 305.972 21.3293 304.521Z" fill="#7A63F5"/>
<path d="M9.71832 308.052L11.5409 298.255L20.1882 308.571C24.9858 313.709 37.7202 326.143 55.9057 329.201C87.5375 335.514 103.918 328.354 116.877 321.145C131.065 311.788 241.473 229.098 247.788 224.413C261.266 212.037 261.755 210.301 265.532 205.76C269.309 201.219 272.181 194.204 273.856 189.37C275.195 185.502 276.004 178.416 276.242 175.356C276.286 176.307 276.381 180.988 276.285 191.971C275.38 205.161 272.714 209.084 268.581 218.214C263.989 225.648 252.848 236.995 246.32 241.82C211.618 267.467 140.225 320.062 132.263 325.272C122.31 331.784 119.926 333.599 109.721 338.787C101.558 342.938 87.7881 344.97 81.9236 345.468C79.327 345.448 72.0487 345.496 62.879 344.351C53.7092 343.207 43.8053 338.534 40.1032 336.527C36.3864 334.204 27.6881 328.503 22.6298 324.29C17.5715 320.078 11.9146 311.71 9.71832 308.052Z" fill="#4429C6"/>
<path d="M341.727 90.8067V254.807H390.727V138.307L523.227 253.307C527.727 257.307 542.727 258.807 552.227 254.807C564.075 249.818 568.893 239.64 570.227 232.807V209.807C567.393 210.473 565.727 212.807 555.727 212.807C548.527 212.807 540.227 208.976 535.727 204.807C494.893 166.973 411.227 88.5067 401.227 79.3067C391.227 70.1067 385.727 68.1401 384.227 68.3067C382.06 68.1401 376.827 67.9067 363.227 68.3067C349.627 68.7067 342.393 83.4734 341.727 90.8067Z" fill="#5A3CF0"/>
<path d="M520.727 171.807V68.8067H556.727C564.227 68.8067 570.893 78.9734 570.727 83.3067V198.807C565.227 200.807 552.621 202.606 541.227 196.307C533.768 192.184 522.227 182.307 520.727 171.807Z" fill="#5A3CF0"/>
<path d="M695.727 68.3067H842.727V95.8067C842.727 107.807 829.727 111.473 823.227 111.807C787.893 111.64 712.927 111.907 695.727 112.307C678.527 112.707 665.56 128.64 661.227 136.807C653.533 151.307 655.227 174.307 661.227 185.807C667.227 197.307 678.727 210.807 695.727 212.307C711.727 212.307 811.527 213.307 826.727 213.307C841.927 213.307 842.56 224.64 842.727 230.807V255.807H695.727C650.927 255.807 623.727 222.14 615.727 204.807C606.69 191.684 601.373 151.699 615.727 117.807C629.5 85.2852 668.227 69.8067 695.727 68.3067Z" fill="#5A3CF0"/>
<path d="M878.727 111.807V68.8067H909.727C917.327 68.8067 920.227 77.8067 920.727 82.3067V111.807H878.727Z" fill="#7A63F5"/>
<path d="M878.727 255.807V116.307H920.727V255.807H878.727Z" fill="#5A3CF0"/>
</svg>
