<svg width="249" height="163" viewBox="0 0 249 163" fill="none" xmlns="http://www.w3.org/2000/svg">
<path d="M123.688 67.8911C126.855 52.4705 134.432 39.5822 147.104 30.2417C159.776 20.9011 175.458 16.5834 191.125 18.1213C206.792 19.6592 221.335 26.9437 231.949 38.5699C242.562 50.1962 248.495 65.3407 248.604 81.0827C248.712 96.8247 242.987 112.049 232.534 123.82C222.08 135.591 207.639 143.074 191.995 144.827C176.35 146.58 160.611 142.478 147.812 133.312C135.013 124.147 127.067 111.578 123.688 96.2019L131.485 92.3539C134.958 105.272 142.071 118.116 153.059 125.985C164.047 133.854 177.56 137.376 190.991 135.871C204.422 134.366 216.821 127.941 225.795 117.836C234.769 107.73 239.684 94.6595 239.591 81.1446C239.499 67.6296 234.405 54.6276 225.293 44.6462C216.18 34.6647 203.695 28.4108 190.244 27.0905C176.794 25.7702 163.331 29.477 152.451 37.4962C141.572 45.5153 134.378 58.2253 131.659 71.4643L127.536 69.8151L123.688 67.8911Z" fill="#4429C6"/>
<path d="M15.942 0C21.7745 0 26.6419 4.12876 27.7826 9.62288C35.3752 9.65488 52.887 10.0781 63.2023 10.0781C73.9219 10.0782 85.6656 20.9812 89.3304 26.3868L99.2254 42.8786C102.982 49.3837 110.77 64.9382 118.741 69.5403C125.337 75.0375 135.965 77.0532 140.455 77.2364H159.242C161.332 64.9094 172.06 55.5223 184.983 55.5223C199.404 55.5223 211.095 67.213 211.095 81.6342C211.095 96.0555 199.404 107.746 184.983 107.746C172.253 107.746 161.653 98.637 159.341 86.5817H140.455C137.34 86.9482 130.065 88.2309 125.887 90.4298C120.665 93.1785 114.618 96.4768 109.945 103.074C105.822 108.296 94.2779 129.46 89.6052 135.782C87.6812 138.714 82.6237 145.237 77.7861 147.876C71.7392 151.174 66.2419 153.099 61.2944 153.373C57.4587 153.586 37.4816 153.472 27.5781 153.381C26.1398 158.453 21.4751 162.169 15.942 162.169C9.26273 162.169 3.84808 156.754 3.84808 150.075C3.84808 143.396 9.26273 137.981 15.942 137.981C21.3774 137.981 25.9751 141.567 27.4992 146.502H61.2944C69.8701 146.502 81.375 137.706 85.4823 129.735L99.5003 106.097C100.325 104.723 102.469 101.371 104.448 98.9506C108.571 93.1785 116.45 87.3147 119.565 85.7572H26.7674C24.9335 91.1904 19.7952 95.1025 13.7431 95.1025C6.15301 95.1025 0 88.9495 0 81.3594C0 73.7692 6.15301 67.6162 13.7431 67.6162C20.3919 67.6162 25.9375 72.3378 27.2109 78.6107H119.565C106.922 72.2889 99.4087 56.805 95.6522 50.2999L85.4823 33.2584C82.184 27.5455 72.0654 16.675 60.4113 16.6748H27.1373C25.3319 21.0826 21 24.1879 15.942 24.1879C9.26273 24.1879 3.84808 18.7733 3.84808 12.094C3.84808 5.41465 9.26273 0 15.942 0Z" fill="#7A63F5"/>
</svg>
