<svg width="263" height="215" viewBox="0 0 263 215" fill="none" xmlns="http://www.w3.org/2000/svg">
<path fill-rule="evenodd" clip-rule="evenodd" d="M222.73 0C230.655 0 237.079 6.41683 237.079 14.3324V33.65C237.079 41.5655 230.655 47.9824 222.73 47.9824H203.389C195.464 47.9824 189.039 41.5655 189.039 33.65V14.3324C189.039 6.41683 195.464 0 203.389 0H222.73ZM203.957 4.30605C198.099 4.30608 193.351 9.04898 193.351 14.8996V33.0828C193.351 38.9334 198.099 43.6763 203.957 43.6763H222.162C228.019 43.6763 232.768 38.9334 232.768 33.0828V14.8996C232.768 9.04898 228.019 4.30609 222.162 4.30605H203.957Z" fill="#4429C6"/>
<path d="M201.517 17.4481C201.517 14.6949 203.752 12.463 206.508 12.463H219.61C222.367 12.463 224.601 14.6949 224.601 17.4481V30.5342C224.601 33.2875 222.367 35.5194 219.61 35.5194H206.508C203.752 35.5194 201.517 33.2875 201.517 30.5342V17.4481Z" fill="#7A63F5"/>
<path d="M223.605 154.29C226.361 154.29 228.596 156.522 228.596 159.275V175.355C228.596 178.109 226.361 180.34 223.605 180.34H207.505C204.749 180.34 202.514 178.109 202.514 175.355V159.275C202.514 156.522 204.749 154.29 207.505 154.29H223.605Z" fill="#7A63F5"/>
<path d="M30.5707 85.9944C33.3273 85.9944 35.5619 88.2263 35.5619 90.9796V104.066C35.5619 106.819 33.3273 109.051 30.5707 109.051H17.469C14.7125 109.051 12.4779 106.819 12.4779 104.066V90.9796C12.4779 88.2263 14.7125 85.9944 17.469 85.9944H30.5707Z" fill="#7A63F5"/>
<path d="M134.761 85.9944C137.517 85.9944 139.752 88.2263 139.752 90.9796V104.066C139.752 106.819 137.517 109.051 134.761 109.051H121.659C118.903 109.051 116.668 106.819 116.668 104.066V90.9796C116.668 88.2263 118.903 85.9944 121.659 85.9944H134.761Z" fill="#7A63F5"/>
<path fill-rule="evenodd" clip-rule="evenodd" d="M124.467 20.5639C124.917 20.5639 125.363 20.6527 125.78 20.8249C126.196 20.9972 126.574 21.2497 126.893 21.568C127.211 21.8862 127.464 22.264 127.637 22.6798C127.809 23.0956 127.898 23.5411 127.898 23.9912C127.898 24.4412 127.809 24.8868 127.637 25.3026C127.464 25.7184 127.211 26.0962 126.893 26.4144C126.574 26.7327 126.196 26.9852 125.78 27.1574C125.415 27.3081 125.028 27.3949 124.635 27.4142L124.467 27.4185H100.447C95.1436 27.4185 86.7211 33.65 86.7211 40.5046C86.7211 48.9794 86.4091 73.2199 86.4091 83.5018C86.4091 83.5018 86.4083 88.8928 80.2348 94.0953H104.19V87.8638C104.19 79.9483 110.615 73.5314 118.54 73.5314H137.88C145.805 73.5314 152.23 79.9483 152.23 87.8638V94.0953H199.958C209.316 94.0953 217.115 102.383 217.115 116.84V140.208H228.345C236.27 140.208 242.694 146.625 242.694 154.541V180.09C242.694 188.005 236.27 194.422 228.345 194.422H202.765C194.84 194.422 188.416 188.005 188.416 180.09V154.541C188.416 146.625 194.84 140.208 202.765 140.208H210.252V117.775C210.252 107.493 204.949 101.262 198.398 101.262H152.23V107.181C152.23 115.097 145.805 121.514 137.88 121.514H118.54C110.615 121.514 104.19 115.097 104.19 107.181V101.262H48.0397V107.181C48.0397 115.097 41.6152 121.514 33.6902 121.514H14.3495C6.4245 121.514 0 115.097 0 107.181V87.8638C0 79.9483 6.4245 73.5314 14.3495 73.5314H33.6902C41.6152 73.5314 48.0397 79.9483 48.0397 87.8638V94.0953H69.8626C73.5243 92.8251 79.5463 87.8072 79.5463 81.6324C79.5463 74.6531 79.8582 51.202 79.8582 39.8815C79.8582 31.1574 88.9047 20.5639 99.8228 20.5639H124.467ZM203.893 145.074C198.035 145.074 193.287 149.816 193.287 155.667V178.963C193.287 184.814 198.035 189.557 203.893 189.557H227.217C233.075 189.557 237.823 184.814 237.823 178.963V155.667C237.823 149.816 233.075 145.074 227.217 145.074H203.893ZM14.9174 77.8375C9.05979 77.8375 4.31123 82.5804 4.31119 88.431V106.614C4.31123 112.465 9.05979 117.208 14.9174 117.208H33.1224C38.9799 117.208 43.7285 112.465 43.7285 106.614V88.431C43.7285 82.5804 38.9799 77.8375 33.1224 77.8375H14.9174ZM119.107 77.8375C113.25 77.8375 108.501 82.5804 108.501 88.431V106.614C108.501 112.465 113.25 117.208 119.107 117.208H137.312C143.17 117.208 147.919 112.465 147.919 106.614V88.431C147.919 82.5804 143.17 77.8375 137.312 77.8375H119.107Z" fill="#7A63F5"/>
<path d="M150.358 23.9912C150.358 22.0983 151.894 20.5639 153.79 20.5639H159.405C161.3 20.5639 162.836 22.0983 162.836 23.9912C162.836 25.884 161.3 27.4185 159.405 27.4185H153.79C151.894 27.4185 150.358 25.884 150.358 23.9912Z" fill="#4429C6"/>
<path d="M168.451 23.9912C168.451 22.0983 169.987 20.5639 171.882 20.5639H180.617C182.512 20.5639 184.048 22.0983 184.048 23.9912C184.048 25.884 182.512 27.4185 180.617 27.4185H171.882C169.987 27.4185 168.451 25.884 168.451 23.9912Z" fill="#4429C6"/>
<path d="M238.075 137.312C236.279 136.71 235.312 134.766 235.915 132.972L238.696 124.702C239.3 122.908 241.245 121.942 243.042 122.544C244.838 123.147 245.806 125.09 245.202 126.885L242.421 135.155C241.817 136.949 239.872 137.915 238.075 137.312Z" fill="#4429C6"/>
<path d="M248.418 148.073C247.66 146.338 248.453 144.318 250.19 143.56L258.195 140.069C259.931 139.312 261.954 140.104 262.712 141.839C263.471 143.574 262.678 145.594 260.941 146.351L252.936 149.842C251.199 150.6 249.177 149.808 248.418 148.073Z" fill="#4429C6"/>
<path d="M214.995 215C213.1 215.008 211.557 213.48 211.55 211.587L211.514 202.863C211.506 200.97 213.036 199.429 214.931 199.421C216.826 199.414 218.369 200.942 218.376 202.835L218.412 211.559C218.42 213.451 216.89 214.992 214.995 215Z" fill="#4429C6"/>
<path d="M132.889 23.9912C132.889 22.0983 134.425 20.5639 136.321 20.5639H141.936C143.831 20.5639 145.367 22.0983 145.367 23.9912C145.367 25.884 143.831 27.4185 141.936 27.4185H136.321C134.425 27.4185 132.889 25.884 132.889 23.9912Z" fill="#4429C6"/>
</svg>
